<?xml version="1.0" encoding="utf-8"?>
<!-- Generator: Adobe Illustrator 16.0.0, SVG Export Plug-In . SVG Version: 6.00 Build 0)  -->
<!DOCTYPE svg PUBLIC "-//W3C//DTD SVG 1.1//EN" "http://www.w3.org/Graphics/SVG/1.1/DTD/svg11.dtd">
<svg version="1.1" id="Layer_1" xmlns="http://www.w3.org/2000/svg" xmlns:xlink="http://www.w3.org/1999/xlink" x="0px" y="0px"
	 width="189.8px" height="57.5px" viewBox="0 0 189.8 57.5" enable-background="new 0 0 189.8 57.5" xml:space="preserve">
<g>
	<g>
		<path fill="#00ACBF" d="M14.4,16.3c-1.9,2.6-1.9,5.8,0,7.2c1.9,1.4,5,0.4,6.9-2.2c1.9-2.6,1.9-5.8,0-7.2
			C19.4,12.7,16.3,13.7,14.4,16.3"/>
		<path fill="#00ACBF" d="M14.1,11.6c2.2-2,3.6-4.1,3.1-4.6c-0.5-0.5-2.7,0.6-4.9,2.6c-2.2,2-3.6,4.1-3.1,4.6
			C9.7,14.8,11.9,13.6,14.1,11.6"/>
		<path fill="#00ACBF" d="M18.6,38.3c-1.3-3.3-4.3-5.3-6.5-4.5c-2.3,0.9-3,4.3-1.7,7.7c1.3,3.3,4.3,5.3,6.5,4.5
			C19.2,45,19.9,41.6,18.6,38.3"/>
		<path fill="#00ACBF" d="M7.3,18.5c-1.6-0.1-3.1,3.6-3.4,8.3c-0.3,4.7,0.6,8.6,2.2,8.7c1.6,0.1,3.1-3.6,3.4-8.3
			C9.9,22.6,8.9,18.6,7.3,18.5"/>
		<path fill="#00ACBF" d="M28.2,8c4.1-0.3,7.3-1.7,7.2-3.2c-0.1-0.8-1.2-1.5-3-1.8c-0.2,0-1.2-0.1-1.4-0.1c-1,0-2,0-3,0
			C27,3,26,3.2,25,3.3c-0.2,0-0.3,0.1-0.5,0.1c-0.2,0.1-0.5,0.1-0.7,0.2c-2,0.6-3.2,1.5-3.2,2.4C20.7,7.4,24.1,8.3,28.2,8"/>
		<path fill="#00ACBF" d="M43.6,12.7c2.8,2.4,5.8,3.5,6.7,2.6c0.9-1-0.5-3.7-3.3-6.1c-2.8-2.4-5.8-3.5-6.7-2.6
			C39.4,7.6,40.9,10.3,43.6,12.7"/>
		<path fill="#00ACBF" d="M33.5,16.4c-0.8,1.6-0.1,3.6,1.5,4.3c1.6,0.7,3.5,0,4.3-1.6c0.8-1.6,0.1-3.6-1.5-4.3
			C36.1,14.1,34.2,14.8,33.5,16.4"/>
		<path fill="#00ACBF" d="M39.6,38.3c0.4-0.8,0.4-1.9,0-2.7c-0.4-0.9-1.4-1.4-2.1-2.1c-1.5-1.2-2.3-2.8-2.1-4.7
			c0.1-0.6,0.2-1.2,0.5-1.7c0.2-0.5,0.6-1,1-1.4c0.4-0.4,0.8-0.7,1.3-1c0.5-0.2,0.9-0.4,1.4-0.5c0.5-0.1,0.9-0.1,1.4-0.1
			c1,0.1,1.9,0.6,2.9,0.6c1.2,0,2.4-0.7,3-1.9c0.5-1.1,0.4-2.3-0.2-3.2c-0.5-0.8-1.4-1.3-2.4-1.4c-0.9-0.1-1.8,0.3-2.5,0.9
			c-0.1,0.1-0.2,0.2-0.3,0.4c0,0-0.1,0.1-0.1,0.2c-0.7,1.1-1.6,2.2-2.8,2.9c-0.5,0.2-1,0.4-1.5,0.5c-1,0.2-2,0.1-3-0.4
			c-1-0.5-1.8-1.2-2.3-2.2c-0.3-0.6-0.5-1.2-0.6-1.8c-0.1-1.1,0.1-2.2,0.4-3.3c0-0.2,0.1-0.3,0.1-0.5c0.1-0.3,0.1-0.6,0-0.9
			c-0.1-1-0.7-2-1.6-2.5c-0.1-0.1-0.2-0.1-0.3-0.2c-1.6-0.7-3.4,0.1-4.2,1.7c-0.6,1.2-0.3,2.6,0.5,3.6c0.6,0.6,1.3,1,2,1.6
			c0.6,0.5,1.1,1.2,1.5,1.9c0.4,0.8,0.5,1.8,0.4,2.7c-0.1,0.5-0.2,1.1-0.4,1.6c-0.2,0.5-0.5,0.9-0.9,1.3c-1.6,1.7-3.9,2-6,1.3
			c-1.6-0.5-3.4,0.1-4.2,1.7c-0.8,1.6-0.1,3.6,1.5,4.3c0.8,0.4,1.7,0.4,2.5,0.1c0.9-0.4,1.4-1.1,2-1.9c0.3-0.4,0.7-0.8,1-1.2
			c1.2-1.3,3.1-1.9,4.9-1.4c0.3,0.1,0.6,0.2,0.8,0.3c0.5,0.2,1,0.5,1.3,0.9c1,1,1.6,2.4,1.5,3.9c-0.1,1.5-1,3-0.4,4.6
			c0.3,0.8,0.9,1.5,1.7,1.8C37,40.6,38.9,39.9,39.6,38.3"/>
		<path fill="#00ACBF" d="M48.9,27.6c-2.2-0.9-4.9,0.7-6.1,3.5c-1.2,2.8-0.3,5.9,1.9,6.8c2.2,0.9,4.9-0.7,6.1-3.5
			C51.9,31.5,51.1,28.5,48.9,27.6"/>
		<path fill="#00ACBF" d="M53.5,21.2c-0.2-1.8-1.4-3.1-2.6-3c-1.2,0.2-1.9,1.8-1.7,3.6c0.2,1.8,1.4,3.1,2.6,3
			C53,24.6,53.8,23,53.5,21.2"/>
		<path fill="#00ACBF" d="M23,50.5c-3.6-1.1-6.7-1.3-6.9-0.4c-0.1,0.2,0.1,0.5,0.4,0.8c0.1,0.1,0.2,0.2,0.4,0.3
			c0.5,0.4,2.2,1.2,2.4,1.3c2,0.9,4.2,1.6,6.5,1.9c1.8,0.2,3.1,0.1,3.3-0.4C29.3,53.2,26.6,51.6,23,50.5"/>
		<path fill="#00ACBF" d="M55.7,28.1c-0.6-0.2-1.7,2.4-2.5,5.8c-0.8,3.4-0.9,6.3-0.3,6.5c0.6,0.1,1.7-2.5,2.5-5.9
			C56.2,31.1,56.3,28.3,55.7,28.1"/>
		<path fill="#00ACBF" d="M39.6,44.2c-3.7,2.3-5.8,5.6-4.6,7.4c0.9,1.4,3.6,1.5,6.6,0.4c0.2-0.1,1.1-0.5,1.3-0.6
			c1.2-0.7,2.4-1.5,3.5-2.3c0.2-0.2,0.3-0.3,0.5-0.5c1.8-1.9,2.6-3.9,1.8-5.2C47.4,41.6,43.4,42,39.6,44.2"/>
		<path fill="#00ACBF" d="M25.2,38.9c-2.2,1.4-2.9,4.1-1.6,6.3c1.3,2.3,4.4,3,6.8,1.6c2.5-1.5,3.2-4.6,1.5-6.8
			C30.4,37.9,27.4,37.5,25.2,38.9z"/>
	</g>
	<g>
		<path fill="#002350" d="M136.6,34.7c0.9,0,1.6-0.7,1.6-1.5c0-0.8-0.7-1.5-1.5-1.6c-0.8,0-1.5,0.7-1.6,1.5
			C135,34,135.7,34.7,136.6,34.7z"/>
		<path fill="#002350" d="M104.8,39.5c0-0.6-0.2-1.2-0.4-1.8c-0.3-0.7-0.7-1.4-1.3-1.9c-0.4-0.4-0.9-0.8-1.4-1
			c-0.2-0.1-0.4-0.2-0.6-0.3c-0.7-0.3-1.5-0.5-2.3-0.5c-0.8,0-1.6,0.2-2.3,0.5c-0.4,0.2-0.8,0.4-1.2,0.7c-0.3,0.2-0.5,0.4-0.7,0.6
			c-0.1,0.1-0.1,0.1-0.2,0.2c-0.1-0.1-0.1-0.1-0.2-0.2c-0.4-0.4-0.9-0.7-1.3-1c-0.2-0.1-0.4-0.2-0.6-0.3c-0.7-0.3-1.5-0.5-2.3-0.5
			c-0.8,0-1.6,0.2-2.3,0.5c-0.4,0.2-0.8,0.4-1.2,0.7c-0.3,0.2-0.5,0.4-0.7,0.6c-0.6,0.6-1,1.2-1.3,1.9c-0.3,0.7-0.5,1.5-0.5,2.3v6.6
			c0,1.7,1.3,3,3,3H87v-4.1l0-5.3v-0.3c0.1-1.6,1.4-2.8,2.9-2.8c1.5,0,2.8,1.2,2.9,2.7v6.8c0,1.7,1.3,3,3,3h0.1l0-4.1v-5.1
			c0-0.1,0-0.2,0-0.3l0,0c0-1.6,1.3-3,2.9-3c1.5,0,2.7,1.1,2.9,2.6v6.9c0,1.7,1.3,3,3,3h0.1l0-9.1c0-0.2,0-0.3,0-0.5
			C104.8,39.9,104.8,39.7,104.8,39.5L104.8,39.5z"/>
		<path fill="#002350" d="M81.7,41.6C81.6,37.4,78.2,34,74,34c-4.3,0-7.7,3.5-7.7,7.8c0,4.3,3.5,7.8,7.7,7.8c1.9,0,3.6-0.7,4.9-1.8
			c0.5,1,1.5,1.8,2.7,1.8h0.1L81.7,41.6L81.7,41.6L81.7,41.6z M74,46.5c-2.6,0-4.7-2.1-4.7-4.7c0-2.6,2.1-4.7,4.7-4.7
			s4.7,2.1,4.7,4.7C78.7,44.4,76.6,46.5,74,46.5z"/>
		<path fill="#002350" d="M185.8,43.8c-0.4-1.2-1.3-2.1-2.4-2.6c-0.8-0.4-1.7-0.5-2.6-0.7c-0.2-0.1-0.5-0.1-0.7-0.2
			c-0.7-0.2-1.5-0.3-2-0.9c-0.2-0.3-0.4-0.6-0.4-1c0-0.9,0.8-1.5,1.6-1.7c0.2,0,0.5-0.1,0.7-0.1c0.5,0,0.9,0.1,1.4,0.3
			c0.2,0.1,0.5,0.3,0.7,0.4c0.6,0.3,1.3,0.6,2,0.6h0v0h1.8V38c0-0.1,0-0.1-0.1-0.2c-0.2-0.5-0.4-1.1-0.8-1.5c-0.5-0.7-1.2-1.3-2-1.7
			c-0.1,0-0.2-0.1-0.3-0.1c-0.7-0.3-1.6-0.5-2.5-0.5h-0.1c-0.8,0-1.5,0.2-2.2,0.4c-0.1,0-0.2,0.1-0.3,0.1c-1.1,0.5-1.9,1.3-2.5,2.3
			c-0.3,0.6-0.5,1.3-0.5,2c0,1.3,0.6,2.2,1.6,2.9c0.7,0.4,1.5,0.7,2.2,0.9c0.7,0.2,1.4,0.4,2.1,0.6c0.5,0.2,1.1,0.3,1.6,0.5
			c0.2,0.1,0.5,0.4,0.6,0.6c0.3,0.7,0.1,1.5-0.5,1.9c-0.1,0.1-0.3,0.2-0.5,0.3c-0.8,0.3-1.8,0.3-2.6,0c-0.4-0.1-0.8-0.3-1.2-0.5
			c-0.2-0.1-0.5-0.3-0.7-0.5c-0.4-0.2-0.9-0.3-1.4-0.3l0,0c0,0-1.3,0-1.3,0c0,0.2,0,0.3,0.1,0.5c0.5,2.2,2.9,3.8,5.6,3.8
			c0.2,0,0.4,0,0.5,0c1.2-0.1,2.4-0.5,3.4-1.3c0.9-0.7,1.6-1.8,1.7-3C186,44.8,185.9,44.3,185.8,43.8L185.8,43.8z"/>
		<path fill="#002350" d="M148,37.1c1.1,0,2.1,0.4,2.8,1c0,0,0.1,0,0.1,0.1c0.5,0.4,1.1,0.6,1.7,0.6h2.4c-0.1-0.2-0.2-0.5-0.3-0.7
			c-1-1.8-2.6-3.1-4.5-3.7c-0.7-0.2-1.4-0.3-2.2-0.3c-4.3,0-7.7,3.5-7.7,7.8c0,4.3,3.5,7.8,7.7,7.8c0.8,0,1.5-0.1,2.2-0.3
			c1.9-0.6,3.6-1.9,4.5-3.7c0.1-0.2,0.2-0.5,0.3-0.7h-2.2c0,0-0.2,0-0.2,0c-0.7,0-1.3,0.2-1.7,0.6c0,0-0.1,0.1-0.1,0.1
			c-0.8,0.6-1.8,1-2.8,1c-2.6,0-4.7-2.1-4.7-4.7C143.3,39.2,145.4,37.1,148,37.1L148,37.1z"/>
		<path fill="#002350" d="M135.2,36.3L135.2,36.3l-0.1,10.2c0,1.7,1.3,3,3,3h0.1V39.3C138.2,37.7,136.8,36.3,135.2,36.3L135.2,36.3z
			"/>
		<path fill="#002350" d="M122.4,41.8c0-0.5,0-1-0.1-1.5c-0.7-3.6-3.8-6.3-7.6-6.3c-4.3,0-7.7,3.5-7.7,7.8c0,4.3,3.5,7.8,7.7,7.8
			c0.8,0,1.5-0.1,2.2-0.3c1.1-0.3,2.1-0.9,2.9-1.7c0.6-0.6,1.2-1.3,1.6-2l0,0c0.1-0.2,0.2-0.5,0.3-0.7h-2.1c-0.1,0-0.3,0-0.4,0
			c-0.6,0-1.2,0.3-1.7,0.6c0,0,0,0-0.1,0c-0.8,0.6-1.8,1-2.9,1c-1.6,0-3-0.8-3.9-2c-0.4-0.6-0.7-1.2-0.8-1.9h12.3
			C122.4,42.3,122.4,42.1,122.4,41.8z M110.1,40.3c0.6-1.9,2.4-3.3,4.5-3.3c2.1,0,3.8,1.4,4.5,3.3H110.1z"/>
		<path fill="#002350" d="M172.4,41.6c-0.1-4.2-3.5-7.6-7.7-7.6c-4.3,0-7.7,3.5-7.7,7.8c0,4.3,3.5,7.8,7.7,7.8
			c1.9,0,3.6-0.7,4.9-1.8c0.5,1,1.5,1.8,2.7,1.8h0.1L172.4,41.6L172.4,41.6z M164.7,46.5c-2.6,0-4.7-2.1-4.7-4.7
			c0-2.6,2.1-4.7,4.7-4.7c2.6,0,4.7,2.1,4.7,4.7C169.3,44.4,167.2,46.5,164.7,46.5z"/>
		<path fill="#002350" d="M131.4,34L131.4,34c-1.6,0-3.1,0.6-4.2,1.5c-0.5,0.4-1,0.9-1.3,1.4c-0.8,1.1-1.3,2.5-1.3,4v5.8
			c0,1.6,1.3,3,3,3h0.1v-8.8c0-1.7,1.2-3.2,2.8-3.6c0.1,0,0.2,0,0.3-0.1c1.2-0.3,2.2-1.5,2.2-2.8V34H131.4L131.4,34z"/>
		<path fill="#002350" d="M90.3,13.3c-4.3,0-7.7,3.5-7.7,7.8c0,4.3,3.5,7.8,7.7,7.8c4.3,0,7.7-3.5,7.7-7.8
			C98,16.7,94.6,13.3,90.3,13.3z M90.3,25.8c-2.6,0-4.7-2.1-4.7-4.7c0-2.6,2.1-4.7,4.7-4.7c2.6,0,4.7,2.1,4.7,4.7
			C95,23.7,92.9,25.8,90.3,25.8z"/>
		<path fill="#002350" d="M74,16.3c1.1,0,2.1,0.4,2.8,1c0,0,0.1,0.1,0.1,0.1c0.5,0.4,1.1,0.6,1.7,0.6c0,0,2.4,0,2.4,0
			c-0.1-0.2-0.2-0.5-0.3-0.7c-1-1.8-2.6-3.1-4.5-3.7c-0.7-0.2-1.4-0.3-2.2-0.3c-4.3,0-7.7,3.5-7.7,7.8c0,4.3,3.5,7.8,7.7,7.8
			c0.8,0,1.5-0.1,2.2-0.3c2-0.6,3.6-1.9,4.5-3.7c0.1-0.2,0.2-0.5,0.3-0.7h-2.2c0,0-0.2,0-0.2,0c-0.7,0-1.3,0.2-1.7,0.6
			c0,0-0.1,0.1-0.1,0.1c-0.8,0.6-1.8,1-2.8,1c-2.6,0-4.7-2.1-4.7-4.7C69.3,18.4,71.4,16.3,74,16.3L74,16.3z"/>
		<path fill="#002350" d="M107,13.2c-2.3,0-4.3,1.1-5.6,2.8c-0.8,1.1-1.3,2.5-1.3,4v5.8c0,1.6,1.3,3,3,3h0.1V20
			c0-2.1,1.7-3.8,3.8-3.8c2.1,0,3.8,1.7,3.8,3.8v5.8c0,1.6,1.3,3,3,3h0.1V20c0-1.2-0.3-2.4-0.9-3.4C111.8,14.6,109.6,13.2,107,13.2
			L107,13.2z"/>
		<path fill="#002350" d="M147.3,21.1c0-0.5,0-1-0.1-1.5c-0.7-3.6-3.8-6.3-7.6-6.3c-4.3,0-7.7,3.5-7.7,7.8s3.5,7.8,7.7,7.8
			c0.8,0,1.5-0.1,2.2-0.3c1.1-0.3,2.1-0.9,2.9-1.7c0.6-0.6,1.2-1.3,1.6-2l0,0c0.1-0.2,0.2-0.5,0.3-0.7h-2.1c-0.1,0-0.3,0-0.4,0
			c-0.6,0-1.2,0.3-1.7,0.6c0,0,0,0-0.1,0.1c-0.8,0.6-1.8,1-2.9,1c-1.6,0-3-0.8-3.9-2c-0.4-0.6-0.7-1.2-0.8-1.9h12.3
			C147.3,21.6,147.3,21.3,147.3,21.1z M135.2,19.6c0.6-1.9,2.4-3.3,4.5-3.3s3.8,1.4,4.5,3.3H135.2z"/>
		<path fill="#002350" d="M122.9,13.2c-2.3,0-4.3,1.1-5.6,2.8c-0.8,1.1-1.3,2.5-1.3,4v5.8c0,1.6,1.3,3,3,3h0.1V20
			c0-2.1,1.7-3.7,3.8-3.7s3.8,1.7,3.8,3.7v5.8c0,1.6,1.3,3,3,3h0.1V20c0-1.2-0.3-2.4-0.9-3.4C127.7,14.6,125.5,13.2,122.9,13.2
			L122.9,13.2z"/>
		<path fill="#002350" d="M170.7,25.9c-0.8-0.3-1.2-1-1.2-2.2v-7.5h0.2c1.6-0.1,2.9-1.3,2.9-2.9h-3.2v-1.3c0-1.7-1.4-3-3-3l-0.1-0.1
			v15.1c0,1.2,0.3,2.2,0.8,3c0.9,1.3,2.5,1.9,4.8,1.9h0.6v-0.2C172.7,27.4,171.9,26.3,170.7,25.9L170.7,25.9z"/>
		<path fill="#002350" d="M157.2,16.3c1.1,0,2.1,0.4,2.8,1c0,0,0.1,0.1,0.1,0.1c0.5,0.4,1.1,0.6,1.7,0.6c0,0,2.4,0,2.4,0
			c-0.1-0.2-0.2-0.5-0.3-0.7c-1-1.8-2.6-3.1-4.5-3.7c-0.7-0.2-1.4-0.3-2.2-0.3c-4.3,0-7.7,3.5-7.7,7.8c0,4.3,3.4,7.8,7.7,7.8
			c0.8,0,1.5-0.1,2.2-0.3c1.9-0.6,3.6-1.9,4.5-3.7c0.1-0.2,0.2-0.5,0.3-0.7h-2.2c0,0-0.2,0-0.2,0c-0.7,0-1.3,0.2-1.7,0.6
			c0,0-0.1,0.1-0.1,0.1c-0.8,0.6-1.8,1-2.8,1c-2.6,0-4.7-2.1-4.7-4.7C152.5,18.4,154.6,16.3,157.2,16.3L157.2,16.3z"/>
	</g>
</g>
</svg>
